<?xml version="1.0" encoding="UTF-8" standalone="no"?>
<svg
   xmlns:sketch="http://www.bohemiancoding.com/sketch/ns"
   xmlns:dc="http://purl.org/dc/elements/1.1/"
   xmlns:cc="http://creativecommons.org/ns#"
   xmlns:rdf="http://www.w3.org/1999/02/22-rdf-syntax-ns#"
   xmlns:svg="http://www.w3.org/2000/svg"
   xmlns="http://www.w3.org/2000/svg"
   xmlns:sodipodi="http://sodipodi.sourceforge.net/DTD/sodipodi-0.dtd"
   xmlns:inkscape="http://www.inkscape.org/namespaces/inkscape"
   width="210mm"
   height="297mm"
   viewBox="0 0 210 297"
   version="1.1"
   id="svg3222"
   inkscape:version="1.0.2 (e86c8708, 2021-01-15)"
   sodipodi:docname="icons.svg">
  <defs
     id="defs3216" />
  <sodipodi:namedview
     id="base"
     pagecolor="#ffffff"
     bordercolor="#666666"
     borderopacity="1.0"
     inkscape:pageopacity="0"
     inkscape:pageshadow="2"
     inkscape:zoom="3.0867435"
     inkscape:cx="454.9841"
     inkscape:cy="337.92379"
     inkscape:document-units="mm"
     inkscape:current-layer="layer1"
     inkscape:document-rotation="0"
     showgrid="false"
     inkscape:window-width="1451"
     inkscape:window-height="943"
     inkscape:window-x="70"
     inkscape:window-y="25"
     inkscape:window-maximized="0">
    <inkscape:grid
       type="xygrid"
       id="grid854" />
  </sodipodi:namedview>
  <metadata
     id="metadata3219">
    <rdf:RDF>
      <cc:Work
         rdf:about="">
        <dc:format>image/svg+xml</dc:format>
        <dc:type
           rdf:resource="http://purl.org/dc/dcmitype/StillImage" />
        <dc:title />
      </cc:Work>
    </rdf:RDF>
  </metadata>
  <g
     inkscape:label="Layer 1"
     inkscape:groupmode="layer"
     id="layer1">
    <path
       id="path994"
       d="m 99.427782,89.49648 c -1.33891,0 -2.42793,-1.089024 -2.42793,-2.427905 0,-1.33859 1.08902,-2.427614 2.42793,-2.427614 1.338418,0 2.427438,1.089024 2.427438,2.427614 0,1.338724 -1.08902,2.427905 -2.427438,2.427905 z m 0,-4.538165 c -1.16364,0 -2.11042,0.946609 -2.11042,2.11008 0,1.16382 0.94678,2.110429 2.11042,2.110429 1.163638,0 2.109928,-0.946778 2.109928,-2.110429 0,-0.653912 -0.29892,-1.239321 -0.76734,-1.626669 -0.36501,-0.301839 -0.832956,-0.483411 -1.342588,-0.483411 z m 0.4483,-1.052832 -0.004,-0.0036 v -9.89e-4 c 0,-0.130073 -0.33304,-0.674676 -0.44591,-0.675822 -0.11254,-0.0024 -0.44578,0.545785 -0.44578,0.675822 0,0 1.6e-4,5.91e-4 1.6e-4,9.89e-4 l -0.002,0.0036 h 0.002 c 0.004,0.200961 0.20131,0.363836 0.4453,0.363836 0.2448,0 0.44227,-0.162887 0.44561,-0.363836 z m -0.89662,6.326161 0.002,0.0036 v 9.78e-4 c 0,0.129687 0.33307,0.674217 0.44577,0.675496 0.11294,0.0024 0.44578,-0.545797 0.44578,-0.675496 v -9.78e-4 l 0.002,-0.0036 h -0.002 c -0.004,-0.200961 -0.20131,-0.36351 -0.44547,-0.36351 -0.24447,0 -0.44194,0.162489 -0.44511,0.36351 z m 3.611238,-2.714917 0.004,-0.0024 h 10e-4 c 0.12983,0 0.67439,-0.333049 0.67566,-0.445956 0.002,-0.112798 -0.54579,-0.445762 -0.67566,-0.445762 -6.1e-4,0 -10e-4,1.69e-4 -10e-4,1.69e-4 l -0.004,-0.0024 v 0.0024 c -0.20056,0.0036 -0.36337,0.201286 -0.36337,0.44528 0,0.244463 0.16279,0.442288 0.36337,0.445605 z m -6.325998,-0.896484 -0.004,0.0036 h -10e-4 c -0.12982,0 -0.67471,0.332929 -0.67595,0.445799 -0.002,0.112798 0.54592,0.446077 0.67595,0.446077 3e-4,0 6e-4,-3.14e-4 10e-4,-3.14e-4 l 0.004,0.0024 v -0.0024 c 0.20096,-0.0036 0.36368,-0.201625 0.36368,-0.445461 0,-0.244464 -0.16278,-0.441963 -0.36368,-0.445449 v -0.0024 z m 1.24315,-2.10517 -0.004,-0.001 c -1.6e-4,-4.82e-4 -6e-4,-6.03e-4 -6e-4,-6.03e-4 -0.0921,-0.09193 -0.71263,-0.241436 -0.79345,-0.162682 -0.081,0.07878 0.0707,0.701349 0.16259,0.793276 6e-4,3.14e-4 6e-4,3.14e-4 10e-4,5.91e-4 l 0.001,0.0036 0.002,-0.0024 c 0.14471,0.139628 0.39975,0.114728 0.57232,-0.05767 0.17263,-0.17284 0.19735,-0.427522 0.0577,-0.571975 z m 3.839688,5.106836 0.004,9.77e-4 c 0,4.82e-4 6e-4,6.15e-4 6e-4,0.001 0.0921,0.09144 0.71247,0.241436 0.79312,0.162079 0.0812,-0.07878 -0.0703,-0.701349 -0.16238,-0.79277 0,-6.15e-4 -6.1e-4,-6.15e-4 -10e-4,-6.15e-4 l -0.001,-0.0036 -0.002,0.0024 c -0.14468,-0.139616 -0.3997,-0.114608 -0.57227,0.05815 -0.17264,0.172623 -0.19716,0.427027 -0.0573,0.571782 z m 0.63357,-4.473274 0.001,-0.0036 c 6.1e-4,-1.57e-4 10e-4,-6.03e-4 10e-4,-9.89e-4 0.0914,-0.09169 0.2413,-0.712484 0.16218,-0.793264 -0.0784,-0.08059 -0.70104,0.07081 -0.79279,0.162694 -6.1e-4,3.14e-4 -6.1e-4,5.91e-4 -6.1e-4,9.89e-4 l -0.004,0.001 0.002,0.0024 c -0.13947,0.144804 -0.11476,0.399594 0.0579,0.572157 0.17263,0.172828 0.4272,0.197293 0.57183,0.05767 z m -5.106818,3.8397 -10e-4,0.0036 c -3.2e-4,0 -6.1e-4,6.15e-4 -6.1e-4,6.15e-4 -0.0921,0.09193 -0.24193,0.71246 -0.16298,0.792794 0.079,0.08167 0.70169,-0.07021 0.79328,-0.162091 4.9e-4,0 6.1e-4,-6.03e-4 6.1e-4,-6.03e-4 l 0.004,-0.0024 -0.002,-9.77e-4 c 0.13967,-0.144792 0.11455,-0.400053 -0.0581,-0.572458 -0.17263,-0.172635 -0.4272,-0.197306 -0.57182,-0.05791 z"
       inkscape:connector-curvature="0"
       style="fill:#000000;fill-opacity:1;stroke-width:0.15875"
       ng-style="{ visibility: itemState('Weather_Illuminance', true) == 'SUN' || itemState('Weather_Illuminance', true) == NULL ? 'visible' : 'hidden' }"
       inkscape:export-xdpi="216"
       inkscape:export-ydpi="216"
       sodipodi:nodetypes="sssssssssssccscccccsccccscscccsccccscscccsccccscscccsccccccccccccccccccccccccccccccccccccccccccccccc" />
    <path
       id="path1124"
       d="m 100.82281,77.701629 c -0.0243,0 -0.048,-4.6e-4 -0.0721,-0.002 l -4.981879,0.002 c -0.08781,0 -0.158769,-0.071 -0.158769,-0.15871 0,-0.0877 0.07093,-0.15871 0.158769,-0.15871 l 4.988869,-0.001 c 0.0264,0.001 0.0456,0.001 0.0653,0.001 0.74738,0 1.35539,-0.60802 1.35539,-1.35542 0,-0.74724 -0.60801,-1.35525 -1.35539,-1.35525 -0.74725,0 -1.355261,0.60801 -1.355261,1.35525 0,0.18378 0.03617,0.36196 0.107116,0.52929 0.03435,0.0807 -0.004,0.17402 -0.08376,0.20827 -0.08073,0.0346 -0.174036,-0.004 -0.20826,-0.0837 -0.08801,-0.20686 -0.132639,-0.42673 -0.132639,-0.65358 0,-0.92233 0.750438,-1.67273 1.672754,-1.67273 0.92234,0 1.67291,0.75056 1.67291,1.67273 -1.5e-4,0.92235 -0.75073,1.67276 -1.67307,1.67274 z m 2.42254,1.42384 c 0,-0.63468 -0.51626,-1.15092 -1.15093,-1.15092 -0.0161,0 -0.0331,3.2e-4 -0.0428,9.9e-4 l -6.282862,-9.9e-4 v 0 c -0.08761,0 -0.15877,0.071 -0.15877,0.1587 0,0.0877 0.07113,0.15872 0.15877,0.15872 l 6.289672,6e-4 0.036,-6e-4 c 0.45958,0 0.83344,0.37387 0.83344,0.83344 0,0.45958 -0.37386,0.83345 -0.83344,0.83345 -0.45958,0 -0.83344,-0.37387 -0.83344,-0.83345 0,-0.11317 0.0223,-0.22256 0.0659,-0.32545 0.0344,-0.0805 -0.004,-0.17402 -0.0838,-0.20827 -0.0806,-0.0346 -0.17383,0.004 -0.20826,0.0839 -0.0607,0.1422 -0.0912,0.29368 -0.0912,0.44975 0,0.63466 0.51624,1.15091 1.15093,1.15091 0.63469,0 1.15093,-0.51609 1.15093,-1.15077 z m -7.476644,-2.04391 1.860692,-6e-4 0.03637,6e-4 c 0.507531,0 0.920616,-0.41307 0.920616,-0.92058 0,-0.50753 -0.413085,-0.9206 -0.920616,-0.9206 -0.507661,0 -0.920726,0.41307 -0.920726,0.9206 0,0.12469 0.02455,0.2459 0.07295,0.35988 0.03435,0.0806 0.127809,0.11774 0.20828,0.0837 0.08063,-0.0344 0.118373,-0.12768 0.08376,-0.20829 -0.03152,-0.0744 -0.04759,-0.15355 -0.04759,-0.23542 0,-0.33258 0.270503,-0.60309 0.603238,-0.60309 0.332585,0 0.603108,0.27051 0.603108,0.60309 0,0.33258 -0.270523,0.60308 -0.603108,0.60308 l -0.03294,-6e-4 -1.86436,6e-4 c -0.0876,0 -0.158759,0.0712 -0.158759,0.15872 1.42e-4,0.0877 0.07134,0.1587 0.158961,0.1587 0,0 0,0 0,0 z m 2.40775,1.69339 c 0,-0.0877 -0.07093,-0.15872 -0.158769,-0.15872 h -2.249002 c -0.0876,0 -0.158769,0.071 -0.158769,0.15872 0,0.0877 0.07114,0.15871 0.158769,0.15871 h 2.249002 c 0.08781,0 0.158769,-0.071 0.158769,-0.15871 z"
       inkscape:connector-curvature="0"
       style="fill:#000000;fill-opacity:1;stroke-width:0.15875"
       inkscape:export-xdpi="216"
       inkscape:export-ydpi="216" />
    <path
       style="fill:#000000;fill-opacity:1;fill-rule:evenodd;stroke:none;stroke-width:0.152653"
       d="m 98.667934,44.607913 c -0.872317,-0.0159 -1.750161,0.30119 -2.425898,0.95373 -1.351444,1.30509 -1.389022,3.46534 -0.08215,4.81863 1.062763,1.1005 2.689106,1.33034 3.986414,0.67591 0,0 -0.0683,-0.1241 -0.14389,-0.26416 -1.183176,0.5949 -2.659923,0.38368 -3.628009,-0.61887 -1.192442,-1.23481 -1.159785,-3.20023 0.07699,-4.39447 1.236628,-1.1942 3.202011,-1.15854 4.394479,0.0762 0.22269,0.23062 0.40034,0.48728 0.5367,0.75933 l 0.27006,-0.13187 c -0.15032,-0.29922 -0.34739,-0.58114 -0.59221,-0.83469 -0.65342,-0.67663 -1.520085,-1.02442 -2.392422,-1.03992 z m 1.898506,1.53137 c 0,0 -2.210871,1.30028 -2.447605,1.52891 -0.236725,0.22856 -0.244303,0.611 -0.01404,0.84892 0.229833,0.23792 0.611392,0.24237 0.848005,0.0139 0.236785,-0.22857 1.61417,-2.39179 1.61417,-2.39179 z m 1.25355,0.66818 c -0.0577,-9.9e-4 -0.11455,0.0253 -0.15253,0.0778 -0.86882,1.41554 -1.679567,1.83945 -1.679567,2.79547 0,1.0117 0.820137,1.83183 1.831817,1.83183 1.01169,0 1.83182,-0.82013 1.83182,-1.83183 0,-0.95471 -0.80544,-1.36748 -1.67554,-2.78773 -0.04,-0.0563 -0.0983,-0.0845 -0.15595,-0.0855 z m 10e-4,0.50353 c 0.0583,1.2e-4 0.11657,0.0276 0.15898,0.0827 0.34746,0.45069 1.13481,1.55714 1.14784,1.5782 0.15072,0.24398 0.21827,0.45597 0.21827,0.70877 0,0.84309 -0.68333,1.52644 -1.52641,1.52644 -0.84309,0 -1.52673,-0.68335 -1.52673,-1.52644 0,-0.25284 0.0679,-0.46604 0.21922,-0.71158 0.0181,-0.0288 0.8014,-1.12789 1.14969,-1.57601 0,0 0,-3.2e-4 0,-3.2e-4 0.0426,-0.0549 0.10084,-0.0819 0.15896,-0.0819 z m -1.1534,2.36977 c -0.0764,0 -0.0717,0.12212 -0.0669,0.16031 0.0691,0.55065 0.50491,0.98741 1.05511,1.0579 0.0512,0.006 0.16399,0.01 0.16399,-0.0664 0,-0.0764 -0.17263,-0.0893 -0.17263,-0.0893 -0.45773,-0.0712 -0.81936,-0.43275 -0.89048,-0.89047 0,0 -0.012,-0.17204 -0.089,-0.17204 z"
       id="path1899"
       inkscape:connector-curvature="0"
       inkscape:export-xdpi="216"
       inkscape:export-ydpi="216" />
    <path
       style="color:#000000;font-style:normal;font-variant:normal;font-weight:normal;font-stretch:normal;font-size:medium;line-height:normal;font-family:sans-serif;font-variant-ligatures:normal;font-variant-position:normal;font-variant-caps:normal;font-variant-numeric:normal;font-variant-alternates:normal;font-feature-settings:normal;text-indent:0;text-align:start;text-decoration:none;text-decoration-line:none;text-decoration-style:solid;text-decoration-color:#000000;letter-spacing:normal;word-spacing:normal;text-transform:none;writing-mode:lr-tb;direction:ltr;text-orientation:mixed;dominant-baseline:auto;baseline-shift:baseline;text-anchor:start;white-space:normal;shape-padding:0;clip-rule:nonzero;display:inline;overflow:visible;visibility:visible;isolation:auto;mix-blend-mode:normal;color-interpolation:sRGB;color-interpolation-filters:linearRGB;solid-color:#000000;solid-opacity:1;vector-effect:none;fill:#000000;fill-opacity:1;fill-rule:evenodd;stroke:none;stroke-width:0.3;stroke-linecap:round;stroke-linejoin:round;stroke-miterlimit:4;stroke-dasharray:none;stroke-dashoffset:0;stroke-opacity:1;color-rendering:auto;image-rendering:auto;shape-rendering:auto;text-rendering:auto;enable-background:accumulate"
       d="m 99.35013,54.258396 c -0.742072,0.0159 -1.485326,0.26127 -2.113674,0.75221 -1.54667,1.20842 -1.820144,3.4468 -0.613616,4.99101 1.206467,1.54428 3.44837,1.82013 4.99505,0.61176 1.54669,-1.20844 1.82138,-3.44674 0.61484,-4.99104 -0.60326,-0.77214 -1.46548,-1.22706 -2.370391,-1.33789 -0.169622,-0.0207 -0.340961,-0.0296 -0.512209,-0.026 z m 0.163993,0.29642 c 0.104297,0.004 0.20822,0.01 0.311618,0.0233 0.827059,0.10124 1.615759,0.51892 2.169159,1.22721 1.1068,1.41664 0.85394,3.46592 -0.56431,4.57398 -1.41823,1.10802 -3.463157,0.85613 -4.569945,-0.56058 -1.106848,-1.41663 -0.855159,-3.46592 0.563074,-4.57398 0.620487,-0.48478 1.360872,-0.70923 2.090404,-0.68988 z m -0.08862,0.50695 a 0.15079759,0.14923647 0 0 0 -0.148523,0.15134 v 0.62601 a 0.15079759,0.14923647 0 1 0 0.301392,0 v -0.62601 a 0.15079759,0.14923647 0 0 0 -0.152929,-0.15134 z m -1.303499,0.3485 a 0.15079759,0.14923647 0 0 0 -0.125,0.2248 l 0.313163,0.54323 a 0.15079759,0.14923647 0 1 0 0.261379,-0.14818 l -0.313164,-0.54291 a 0.15079759,0.14923647 0 0 0 -0.136459,-0.077 z m 2.606976,0 a 0.15079759,0.14923647 0 0 0 -0.13304,0.077 l -0.31315,0.54291 a 0.15109409,0.14952988 0 1 0 0.26231,0.14818 l 0.31346,-0.54323 a 0.15079759,0.14923647 0 0 0 -0.12963,-0.2248 z m -3.563199,0.95187 a 0.15079759,0.14923647 0 0 0 -0.06467,0.27969 l 0.542886,0.31255 a 0.15079759,0.14923647 0 1 0 0.151939,-0.25769 l -0.542916,-0.31346 a 0.15079759,0.14923647 0 0 0 -0.0872,-0.0211 z m 4.503929,0 a 0.15079759,0.14923647 0 0 0 -0.0669,0.0211 l -0.54292,0.31346 a 0.15079759,0.14923647 0 1 0 0.15193,0.25767 l 0.54292,-0.31347 a 0.15079759,0.14923647 0 0 0 -0.085,-0.27875 z m -1.21699,0.52897 c 0,0 -1.490894,2.08727 -1.614167,2.3924 -0.123192,0.30512 0.02556,0.65744 0.332058,0.78135 0.306738,0.12391 0.657146,-0.0272 0.780418,-0.33206 0.123391,-0.30513 0.501691,-2.84169 0.501691,-2.84169 z m -3.639156,0.77174 a 0.15091995,0.14935755 0 0 0 0.01607,0.29827 h 0.626297 a 0.15079759,0.14923647 0 1 0 0,-0.29827 h -0.626297 a 0.15079759,0.14923647 0 0 0 -0.01607,0 z m 4.571196,0 a 0.15091995,0.14935755 0 0 0 0.0161,0.29827 h 0.62631 a 0.15079759,0.14923647 0 1 0 0,-0.29827 h -0.62631 a 0.15079759,0.14923647 0 0 0 -0.0161,0 z m -0.25859,0.98443 a 0.15079759,0.14923647 0 0 0 -0.0663,0.27999 l 0.54291,0.31346 a 0.15079759,0.14923647 0 1 0 0.15193,-0.25765 l -0.54292,-0.31347 a 0.15079759,0.14923647 0 0 0 -0.0707,-0.0221 0.15079759,0.14923647 0 0 0 -0.014,-3.2e-4 z m -3.401357,9.9e-4 a 0.15079759,0.14923647 0 0 0 -0.01607,3.2e-4 v 3e-4 a 0.15079759,0.14923647 0 0 0 -0.06568,0.0207 l -0.542895,0.31347 a 0.15079759,0.14923647 0 1 0 0.151928,0.25765 l 0.542916,-0.31346 a 0.15079759,0.14923647 0 0 0 -0.07093,-0.27906 z"
       id="path1914"
       inkscape:connector-curvature="0"
       inkscape:export-xdpi="216"
       inkscape:export-ydpi="216" />
    <g
       sketch:type="MSPage"
       id="flatten"
       transform="matrix(0.23064125,0,0,0.23064125,95.737296,63.738054)"
       style="fill:#000000;fill-opacity:1;fill-rule:evenodd;stroke:none;stroke-width:1"
       inkscape:export-xdpi="216"
       inkscape:export-ydpi="216">
      <g
         transform="translate(-36,-4)"
         sketch:type="MSArtboardGroup"
         id="z-copy"
         style="fill:#000000;fill-opacity:1;stroke-width:1.00156;stroke-miterlimit:4;stroke-dasharray:none">
        <g
           transform="translate(36,4)"
           sketch:type="MSLayerGroup"
           id="drop"
           style="fill:#000000;fill-opacity:1;stroke-width:1.00156;stroke-miterlimit:4;stroke-dasharray:none">
          <path
             id="path2208"
             sketch:type="MSShapeGroup"
             d="M 4,20 C 4,13.737221 9.3114911,10.96067 15.002982,1.6877308 15.5,1 16.5,1 17.024049,1.7384833 22.723996,11.042243 28,13.745843 28,20 28,26.627417 22.627417,32 16,32 9.372583,32 4,26.627417 4,20 Z M 14.96623,4.1470597 C 12.684982,7.0820606 6.6867916,15.148969 6.5703275,15.338003 5.57941,16.946368 5.1342087,18.343598 5.1342087,20 c 0,5.522847 5.3429443,10.866539 10.8657913,10.866539 5.522847,0 10.867323,-5.343692 10.867323,-10.866539 0,-1.65619 -0.442576,-3.044306 -1.430261,-4.642646 C 25.351808,15.219389 19.326404,7.1048461 17.050256,4.1523853 16.493587,3.430313 15.524968,3.4282013 14.96623,4.1470597 Z M 16,27.544725 c 0,0.5 -0.738033,0.477785 -1.074271,0.434697 C 11.321467,27.517548 8.4674542,24.657202 8.0152341,21.049928 7.9838187,20.799334 7.9526897,20 8.4526897,20 c 0.5,0 0.5833195,1.128044 0.5833195,1.128044 0.4658486,2.998509 2.8348528,5.367513 5.8333608,5.833361 0,0 1.13063,0.08332 1.13063,0.58332 z"
             inkscape:connector-curvature="0"
             style="fill:#000000;fill-opacity:1;stroke-width:1.00156;stroke-miterlimit:4;stroke-dasharray:none"
             sodipodi:nodetypes="sccsssssssscssssssccs" />
        </g>
      </g>
    </g>
    <path
       id="path1174"
       d="m 101.5542,35.530768 v 0.317475 h -1.23032 v -0.317475 z m -0.51593,0.691988 h -0.71439 v 0.317486 h 0.71439 z m -0.71439,1.009486 h 1.23032 v -0.317499 h -1.23032 z m 0.71439,0.374646 h -0.71439 v 0.317498 h 0.71439 z m -0.71439,1.009486 h 1.23032 v -0.317511 h -1.23032 z m 0.19173,1.809109 c 0,0.886313 -0.721052,1.607351 -1.607353,1.607351 -0.886291,0 -1.607346,-0.721038 -1.607346,-1.607351 0,-0.57434 0.301634,-1.096311 0.793766,-1.385085 V 35.39646 c 0,-0.448634 0.364958,-0.813616 0.81358,-0.813616 0.448632,0 0.813591,0.364982 0.813591,0.813616 v 3.643938 c 0.492132,0.288448 0.793762,0.810588 0.793762,1.385085 z m -0.31751,0 c 0,-0.487335 -0.270821,-0.927874 -0.706904,-1.149344 l -0.0868,-0.04415 v -3.835404 c 0,-0.273683 -0.222568,-0.496106 -0.496102,-0.496106 -0.273525,0 -0.496093,0.222423 -0.496093,0.496106 v 3.835404 l -0.0868,0.04415 c -0.436083,0.221627 -0.706909,0.662141 -0.706909,1.149344 0,0.711205 0.578655,1.289852 1.289838,1.289852 0.711203,0 1.28985,-0.578647 1.28985,-1.289852 z m -0.264466,0 c 0,0.565328 -0.459898,1.025206 -1.025377,1.025206 -0.565307,0 -1.025195,-0.459878 -1.025195,-1.025206 0,-0.463376 0.313042,-0.870257 0.761361,-0.989473 l 0.05891,-0.01592 v -3.529016 h 0.410054 v 3.528859 l 0.05891,0.01592 c 0.448461,0.119191 0.761372,0.526265 0.761372,0.989484 z m -0.974572,-0.68341 c -0.02455,-0.108576 -0.13365,-0.179982 -0.244939,-0.154527 -0.388633,0.08795 -0.660106,0.427847 -0.660106,0.826597 0,0.113039 0.09185,0.204809 0.204794,0.204809 0.112937,0 0.204805,-0.09193 0.204805,-0.204809 0,-0.202699 0.143088,-0.382415 0.340819,-0.427028 0.109925,-0.02533 0.179463,-0.135031 0.154546,-0.244934 z"
       inkscape:connector-curvature="0"
       style="fill:#000000;fill-opacity:1;stroke-width:0.15875"
       inkscape:export-filename="/Users/Harald/Projekte/homeautomation/Arduino/weatherbase/data/temperature.png"
       inkscape:export-xdpi="216"
       inkscape:export-ydpi="216" />
    <g
       id="g4013"
       inkscape:export-xdpi="216"
       inkscape:export-ydpi="216">
      <g
         id="g3983"
         transform="matrix(0.70380499,0,0,0.70823047,43.547387,44.311599)"
         style="stroke-width:1.4164;fill:#b1b1b1;fill-opacity:1">
        <path
           style="fill:none;fill-opacity:1;stroke:#000000;stroke-width:0.32718886;stroke-linecap:round;stroke-linejoin:round;stroke-miterlimit:4;stroke-dasharray:none;stroke-dashoffset:0;stroke-opacity:1"
           d="m 81.804781,70.639992 c 0.554,0 1.000277,0.446 1.000277,1 v 2.179902 4.181475 c 0,0.554 -0.446277,1 -1.000277,1 h -4.815254 c -0.554,0 -0.998857,-0.446 -0.998857,-1 v -6.361377 c 0,-0.554 0.444857,-1 0.998857,-1 L 78.044,70.64 v -0.474121 c 0,-0.490431 -0.06401,-0.885723 0.489989,-0.885605 l 1.6425,3.5e-4 c 0.554,1.18e-4 0.574365,0.394824 0.574365,0.885255 0,0.490431 1.46e-4,0.474121 1.46e-4,0.474121 z"
           id="rect3868"
           sodipodi:nodetypes="cscsssssccsssscc" />
        <path
           id="path3972"
           style="fill:#000000;fill-opacity:1;stroke:none;stroke-width:0.375345;stroke-linecap:butt;stroke-linejoin:miter;stroke-miterlimit:4;stroke-dasharray:none;stroke-opacity:1"
           d="m 76.573218,73.634782 v 4.125327 c 0,0.332402 0.267197,0.599964 0.599598,0.599964 h 4.448675 c 0.332401,0 0.599598,-0.269352 0.599598,-0.599964 v -2.715596 z"
           sodipodi:nodetypes="csssscc" />
      </g>
    </g>
    <g
       id="g4008"
       inkscape:export-xdpi="216"
       inkscape:export-ydpi="216">
      <path
         style="color:#000000;font-style:normal;font-variant:normal;font-weight:normal;font-stretch:normal;font-size:medium;line-height:normal;font-family:sans-serif;font-variant-ligatures:normal;font-variant-position:normal;font-variant-caps:normal;font-variant-numeric:normal;font-variant-alternates:normal;font-feature-settings:normal;text-indent:0;text-align:start;text-decoration:none;text-decoration-line:none;text-decoration-style:solid;text-decoration-color:#000000;letter-spacing:normal;word-spacing:normal;text-transform:none;writing-mode:lr-tb;direction:ltr;text-orientation:mixed;dominant-baseline:auto;baseline-shift:baseline;text-anchor:start;white-space:normal;shape-padding:0;clip-rule:nonzero;display:inline;overflow:visible;visibility:visible;isolation:auto;mix-blend-mode:normal;color-interpolation:sRGB;color-interpolation-filters:linearRGB;solid-color:#000000;solid-opacity:1;vector-effect:none;fill:#000000;fill-opacity:1;fill-rule:evenodd;stroke:none;stroke-width:0.3;stroke-linecap:round;stroke-linejoin:round;stroke-miterlimit:4;stroke-dasharray:none;stroke-dashoffset:0;stroke-opacity:1;color-rendering:auto;image-rendering:auto;shape-rendering:auto;text-rendering:auto;enable-background:accumulate"
         d="m 99.35013,102.94543 c -0.742072,0.0159 -1.485326,0.26127 -2.113674,0.75221 -1.54667,1.20842 -1.820144,3.4468 -0.613616,4.99101 1.206467,1.54428 3.44837,1.82013 4.99505,0.61176 1.54669,-1.20844 1.82138,-3.44674 0.61484,-4.99104 -0.60326,-0.77214 -1.46548,-1.22706 -2.370391,-1.33789 -0.169622,-0.0207 -0.340961,-0.0296 -0.512209,-0.026 z m 0.163993,0.29642 c 0.104297,0.004 0.20822,0.01 0.311618,0.0233 0.827059,0.10124 1.615759,0.51892 2.169159,1.22721 1.1068,1.41664 0.85394,3.46592 -0.56431,4.57398 -1.41823,1.10802 -3.463157,0.85613 -4.569945,-0.56058 -1.106848,-1.41663 -0.855159,-3.46592 0.563074,-4.57398 0.620487,-0.48478 1.360872,-0.70923 2.090404,-0.68988 z"
         id="path3985"
         inkscape:connector-curvature="0"
         sodipodi:nodetypes="csccsccccccscscc" />
      <path
         id="path3995"
         style="fill:#000000;fill-opacity:1;stroke:none;stroke-width:1.13386;stroke-linecap:round;stroke-linejoin:round;stroke-miterlimit:4;stroke-dasharray:none;stroke-dashoffset:0;stroke-opacity:1"
         d="M 382.88867 393.34961 L 375.48633 400.15234 C 373.38977 399.03216 370.48449 397.31668 369.01367 396.53125 C 370.08924 398.10461 372.71065 401.70584 374.11133 403.50391 C 374.24222 403.7258 374.41236 403.91785 374.61719 404.07227 C 374.64178 404.09157 374.66411 404.11492 374.68945 404.13281 C 374.70532 404.14361 374.72404 404.14982 374.74023 404.16016 C 374.9399 404.2917 375.15762 404.38553 375.39453 404.43164 C 375.52193 404.45644 375.65344 404.47075 375.78906 404.4707 C 375.96933 404.47076 376.14089 404.43821 376.30664 404.39258 C 376.34382 404.38228 376.37966 404.37181 376.41602 404.35938 C 376.57823 404.30425 376.73314 404.23405 376.87305 404.14062 C 377.01904 404.04314 377.14508 403.92318 377.25977 403.79102 C 377.27898 403.76883 377.29816 403.74771 377.31641 403.72461 C 377.42917 403.58232 377.52572 403.42825 377.5957 403.25781 L 382.88867 393.34961 z "
         transform="scale(0.26458333)" />
    </g>
    <g
       id="g882"
       transform="matrix(1.2300558,0,0,1.2406621,-29.487779,-21.286661)"
       style="stroke-width:0.809489"
       inkscape:export-xdpi="216"
       inkscape:export-ydpi="216">
      <path
         style="fill:none;stroke:#000000;stroke-width:0.214177px;stroke-linecap:round;stroke-linejoin:miter;stroke-opacity:1"
         d="m 116.27521,86.201078 -3.11235,2.68181 h 4.02272"
         id="path856"
         sodipodi:nodetypes="ccc" />
      <path
         style="fill:none;stroke:#000000;stroke-width:0.186991;stroke-linecap:round;stroke-linejoin:round;stroke-miterlimit:4;stroke-dasharray:none;stroke-opacity:1"
         id="path878"
         sodipodi:type="arc"
         sodipodi:cx="113.23468"
         sodipodi:cy="88.906837"
         sodipodi:rx="2.2268612"
         sodipodi:ry="2.2268612"
         sodipodi:start="5.5850536"
         sodipodi:end="0"
         sodipodi:arc-type="arc"
         d="m 114.94055,87.475439 a 2.2268612,2.2268612 0 0 1 0.52099,1.431398"
         sodipodi:open="true" />
    </g>
    <g
       id="g906"
       transform="translate(1.0583333,-0.52916667)"
       inkscape:export-xdpi="216"
       inkscape:export-ydpi="216">
      <path
         id="path900"
         style="fill:#000000;fill-opacity:1;stroke:none;stroke-width:0.02;stroke-linecap:butt;stroke-linejoin:miter;stroke-miterlimit:4;stroke-dasharray:none;stroke-opacity:1"
         d="m 120,86.313064 0.71982,2.717002 L 120,88.463487 l 0.01,0.323567 m -0.01,0 0.30808,0.244626 0.86911,0.713221 L 120,85.387 v 0.926064 M 120,85.387 118.83281,89.744901 120,88.787054 Z"
         sodipodi:nodetypes="ccccccccccccc" />
    </g>
  </g>
</svg>
